<svg xmlns="http://www.w3.org/2000/svg" viewBox="0 0 64 64">
  <defs>
    <linearGradient id="bg" x1="0%" y1="0%" x2="100%" y2="100%">
      <stop offset="0%" stop-color="#0f766e" />
      <stop offset="100%" stop-color="#1d4ed8" />
    </linearGradient>
  </defs>
  <rect width="64" height="64" rx="18" fill="url(#bg)" />
  <path d="M20 18h24a2 2 0 0 1 0 4H25.9v8.2H41a2 2 0 0 1 0 4H25.9V42H44a2 2 0 0 1 0 4H20a2 2 0 0 1-2-2V20a2 2 0 0 1 2-2Z" fill="#f8fbff" />
  <path d="M42.8 18a2 2 0 0 1 1.7.9l4.7 7.5 4.7-7.5a2 2 0 1 1 3.4 2.1l-5.7 9 5.7 9.1a2 2 0 1 1-3.4 2.1l-4.7-7.6-4.7 7.6a2 2 0 0 1-3.4-2.1l5.7-9.1-5.7-9a2 2 0 0 1 1.7-3.1Z" fill="#f8fbff" />
</svg>
